<svg width="15" height="30" viewBox="0 0 15 30" fill="none" xmlns="http://www.w3.org/2000/svg">
<path d="M0.704504 16.2445H3.90893V29.2021C3.90893 29.458 4.11997 29.6653 4.38043 29.6653H9.81365C10.0741 29.6653 10.2852 29.458 10.2852 29.2021V16.3056H13.9689C14.2084 16.3056 14.41 16.129 14.4373 15.8953L14.9968 11.125C15.0122 10.9937 14.9698 10.8623 14.8804 10.7638C14.7909 10.6653 14.6629 10.6089 14.5285 10.6089H10.2853V7.61859C10.2853 6.71716 10.7795 6.26006 11.7542 6.26006C11.8931 6.26006 14.5285 6.26006 14.5285 6.26006C14.7889 6.26006 15 6.05268 15 5.79694V1.41821C15 1.16238 14.7889 0.955087 14.5285 0.955087H10.7051C10.6781 0.953791 10.6182 0.95166 10.53 0.95166C9.86655 0.95166 7.56062 1.07957 5.73911 2.72551C3.72089 4.54947 4.00144 6.73337 4.06849 7.11202V10.6088H0.704504C0.444046 10.6088 0.233002 10.8161 0.233002 11.0719V15.7813C0.233002 16.0371 0.444046 16.2445 0.704504 16.2445Z" fill="white"/>
</svg>
