<svg width="32" height="32" viewBox="0 0 32 32" fill="none" xmlns="http://www.w3.org/2000/svg">
<path fill-rule="evenodd" clip-rule="evenodd" d="M9.39163 0.196367C6.78702 0.313887 4.52948 0.950682 2.70657 2.7659C0.877295 4.59065 0.248409 6.85713 0.130597 9.43465C0.0573613 11.0434 -0.370879 23.1973 0.870929 26.3846C1.70835 28.5349 3.35769 30.1883 5.52767 31.0284C6.54022 31.4223 7.69609 31.6889 9.39163 31.7667C23.5689 32.4083 28.8243 32.059 31.0405 26.3846C31.4337 25.3746 31.7044 24.2197 31.7792 22.5284C32.4272 8.31473 31.6741 5.23383 29.2033 2.7659C27.2434 0.810922 24.9381 -0.519873 9.39163 0.196367ZM9.52215 28.9081C7.96989 28.8382 7.1277 28.5796 6.5657 28.362C5.15195 27.8125 4.09005 26.755 3.54398 25.3495C2.59829 22.9276 2.91194 11.4248 2.99632 9.56355C3.07911 7.74039 3.44846 6.07414 4.73484 4.78777C6.32691 3.19965 8.38383 2.42132 22.3892 3.0534C24.2169 3.13597 25.887 3.50457 27.1765 4.78777C28.7686 6.37588 29.5583 8.44864 28.9151 22.4003C28.845 23.9487 28.5855 24.7889 28.3674 25.3495C26.9266 29.0419 23.6119 29.5544 9.52215 28.9081ZM22.5436 7.5034C22.5436 8.55474 23.3986 9.40965 24.4541 9.40965C25.5097 9.40965 26.3662 8.55474 26.3662 7.5034C26.3662 6.45207 25.5097 5.59793 24.4541 5.59793C23.3986 5.59793 22.5436 6.45207 22.5436 7.5034ZM7.78045 15.9807C7.78045 20.4846 11.4406 24.1362 15.9557 24.1362C20.4708 24.1362 24.1309 20.4846 24.1309 15.9807C24.1309 11.4768 20.4708 7.82762 15.9557 7.82762C11.4406 7.82762 7.78045 11.4768 7.78045 15.9807ZM10.6493 15.9807C10.6493 13.0586 13.0247 10.6878 15.9557 10.6878C18.8867 10.6878 21.262 13.0586 21.262 15.9807C21.262 18.9045 18.8867 21.2761 15.9557 21.2761C13.0247 21.2761 10.6493 18.9045 10.6493 15.9807Z" fill="white"/>
</svg>
