<svg id="Capa_1" data-name="Capa 1" xmlns="http://www.w3.org/2000/svg" viewBox="0 0 935.28 326"><defs><style>.cls-1{fill:#fff;}</style></defs><path class="cls-1" d="M184.64,250.76a27.17,27.17,0,0,1,52,0l21.65,71.14a32.44,32.44,0,0,0,62.87-3.24l35.14-180.33a105.58,105.58,0,0,0-44.92-108c-20.88-14-48.05-15.17-70.92-3a63.69,63.69,0,0,1-29.81,7.28,63.73,63.73,0,0,1-29.82-7.28c-22.87-12.14-50-11-70.91,3a104.83,104.83,0,0,0-16.6,13.78c-.71.71-1.4,1.43-2.06,2.14l11.5,10.17q.87-.93,1.86-1.92A92.12,92.12,0,0,1,118.46,43c16.16-10.85,37.3-11.69,55.17-2.21a79.34,79.34,0,0,0,37,9.07,79.34,79.34,0,0,0,37-9.07c17.86-9.48,39-8.64,55.16,2.21a90.27,90.27,0,0,1,38.42,92.36L306.08,315.72A17.08,17.08,0,0,1,273,317.44L251.32,246.3a42.52,42.52,0,0,0-81.37,0l-21.64,71.14a17.09,17.09,0,0,1-33.12-1.71L94.93,211.26,79.8,214.33l20.33,104.33A32.43,32.43,0,0,0,163,321.9Z" transform="translate(-22.09 -18.9)"/><path class="cls-1" d="M87,82.22A20.21,20.21,0,1,1,107.24,62,20.23,20.23,0,0,1,87,82.22Zm0-30.47A10.26,10.26,0,1,0,97.3,62,10.27,10.27,0,0,0,87,51.75Z" transform="translate(-22.09 -18.9)"/><circle class="cls-1" cx="64.95" cy="43.11" r="5.63"/><path class="cls-1" d="M125.22,130a29.08,29.08,0,0,0-26.4-23.86,8.88,8.88,0,1,0,.71,9.63,19.57,19.57,0,0,1,16.26,15.51l-.18,46.32c-.19,6.31-2.11,21.27-15.74,23.72L71.1,206.5c-11.49,2.07-19.4-7.26-23-16.67l-16.3-43.48a19.61,19.61,0,0,1,13.48-21.74h0a8.88,8.88,0,1,0-4-8.66h0a29.12,29.12,0,0,0-18.71,32.48l.07.42,16.62,44.32C44.72,207.64,55.7,216.27,68,216.27a26.43,26.43,0,0,0,3.74-.26c.35,0,.69-.1,1.05-.16l4.12-.75,20-3.6L100,211l1.5-.27c14.21-2.56,23-14.81,23.57-32.91l.18-47.33Z" transform="translate(-22.09 -18.9)"/><path class="cls-1" d="M414.62,99.9H385.38v71.6h28.94a37.67,37.67,0,0,0,26.4-10.26,36,36,0,0,0,.08-51.08A37.21,37.21,0,0,0,414.62,99.9Zm25.84,35.9c0,14.4-11.07,25.25-25.74,25.25h-18.5V110.44h18.2C429.27,110.44,440.46,121.34,440.46,135.8Z" transform="translate(-22.09 -18.9)"/><path class="cls-1" d="M484.1,116.66c-16.29,0-27.67,11.29-27.67,27.47s11.38,27.67,27.67,27.67,27.67-11.38,27.67-27.67S500.39,116.66,484.1,116.66Zm17,27.57c0,10.42-7,17.71-17,17.71s-17-7.29-17-17.71,7-17.62,17-17.62S501.12,133.86,501.12,144.23Z" transform="translate(-22.09 -18.9)"/><path class="cls-1" d="M561.44,155.65l-1.16-1.24-1.09,1.3c-3.37,4-8.5,6.13-14.82,6.13-9.91,0-16.83-7.24-16.83-17.61s6.92-17.52,16.83-17.52a20.4,20.4,0,0,1,14.35,5.57l1.2,1.14,1-1.3,4.21-5.4.8-1-.9-.94c-5.09-5.3-12.2-8.11-20.56-8.11h-.43a26.92,26.92,0,0,0-19.43,7.71c-4.93,5-7.64,12-7.64,19.86,0,16.23,11.14,27.57,27.08,27.57,9,0,16.81-3.37,21.84-9.47l.84-1-.9-1Z" transform="translate(-22.09 -18.9)"/><path class="cls-1" d="M604.58,159.8,604,158l-1.59,1a14.24,14.24,0,0,1-7.45,2.42c-2.78,0-5.36-.86-5.36-7.12V127.69h16.37v-9.28h-1.51l-14.86.09V104.9H579v13.62h-7.45v9.17H579v28c0,10.15,5.47,16.2,14.63,16.2a23,23,0,0,0,12.5-4.17l1-.65-.38-1.09Z" transform="translate(-22.09 -18.9)"/><path class="cls-1" d="M637.07,116.66c-16.29,0-27.66,11.29-27.66,27.47s11.37,27.67,27.66,27.67,27.67-11.38,27.67-27.67S653.37,116.66,637.07,116.66Zm17,27.57c0,10.42-7,17.71-17,17.71s-17-7.29-17-17.71,7-17.62,17-17.62S654.1,133.86,654.1,144.23Z" transform="translate(-22.09 -18.9)"/><path class="cls-1" d="M702.82,116.56c-7.27.08-13.06,2.77-17,7.85v-7.56H675.16V171.5h10.65V142.62c.85-9.59,7-15.32,16.56-15.32h.44l1.52,0V116.54Z" transform="translate(-22.09 -18.9)"/><polygon class="cls-1" points="374.13 234.16 374.13 174.5 374.13 173 372.63 173 364.79 173 363.29 173 363.29 174.5 363.29 243.1 363.29 244.6 364.79 244.6 402.72 244.6 404.22 244.6 404.22 243.1 404.22 235.66 404.22 234.16 402.72 234.16 374.13 234.16"/><path class="cls-1" d="M440.19,188.76a6.8,6.8,0,1,0,6.5,6.79A6.5,6.5,0,0,0,440.19,188.76Z" transform="translate(-22.09 -18.9)"/><polygon class="cls-1" points="414.38 189.96 412.88 189.96 412.88 191.46 412.88 243.1 412.88 244.6 414.38 244.6 421.93 244.6 423.43 244.6 423.43 243.1 423.43 191.46 423.43 189.96 421.93 189.96 414.38 189.96"/><path class="cls-1" d="M488.55,251.8l-.61-1.76-1.59,1a14.23,14.23,0,0,1-7.44,2.43c-2.79,0-5.37-.87-5.37-7.13V219.69h16.37v-9.28H488.4l-14.86.09V196.9H463v13.62h-7.45v9.17H463v28c0,10.15,5.47,16.2,14.63,16.2a23.09,23.09,0,0,0,12.5-4.17l1-.65-.38-1.09Z" transform="translate(-22.09 -18.9)"/><path class="cls-1" d="M526.77,251.8l-.61-1.76-1.59,1a14.23,14.23,0,0,1-7.44,2.43c-2.79,0-5.37-.87-5.37-7.13V219.69h16.37v-9.28h-1.51l-14.86.09V196.9H501.22v13.62h-7.45v9.17h7.45v28c0,10.15,5.47,16.2,14.63,16.2a23,23,0,0,0,12.5-4.17l1-.65-.38-1.09Z" transform="translate(-22.09 -18.9)"/><polygon class="cls-1" points="517.48 168.88 515.98 168.88 515.98 170.38 515.98 243.1 515.98 244.6 517.48 244.6 525.12 244.6 526.62 244.6 526.62 243.1 526.62 170.38 526.62 168.88 525.12 168.88 517.48 168.88"/><path class="cls-1" d="M586.92,208.66v.75h0v-.75h-.22c-15.94,0-27.07,11.33-27.07,27.57S570.8,263.8,586.8,263.8c8.87,0,16.65-3.25,21.9-9.13l.91-1-.93-1-4.22-4.51L603.38,247l-1.1,1.15a20,20,0,0,1-14.89,6c-8.78,0-15.13-5.11-16.93-13.46h41.79l.06-1.44c.45-10.09-2-18.25-7.12-23.59C600.76,211,594.61,208.66,586.92,208.66Zm-16.49,22.73c1.65-8.06,7.88-13.17,16.28-13.17,8.71,0,14.57,5,15.61,13.17Z" transform="translate(-22.09 -18.9)"/><path class="cls-1" d="M674.41,221.9c-8.45-2.57-15.75-4.79-15.75-11.74,0-5.62,6.77-7.62,13.11-7.62a33.92,33.92,0,0,1,18.08,5.53l1.47,1,.73-1.61,3.33-7.35.53-1.15-1.06-.71a42,42,0,0,0-22.59-6.63c-15.09,0-25.22,7.73-25.22,19.24,0,14.37,12,17.94,22.59,21.08,8.57,2.55,16,4.75,15.93,11.94,0,5.61-5.59,9.09-14.58,9.09-7.53,0-15.88-3.55-21.79-9.27l-1.47-1.43-.91,1.83-3.53,7.06-.5,1,.8.76a40.46,40.46,0,0,0,27.31,10.91c15.72,0,26.29-8.17,26.29-20.32C697.24,228.85,685.11,225.16,674.41,221.9Z" transform="translate(-22.09 -18.9)"/><path class="cls-1" d="M776.83,208.56h0c-9.44.09-16.35,3.86-20.2,10.95-3.19-7-9.81-10.95-18.69-10.95-8,.08-14.18,2.81-18.2,7.94v-7.65H709.17V263.5h10.55V236.62c0-10.54,5.94-17.25,15.49-17.52,8.1,0,12.77,4.78,12.77,13.11V263.5h10.74V236.62c0-10.54,5.91-17.26,15.4-17.52,8.1,0,12.77,4.78,12.77,13.11V263.5h10.65V230.15C797.54,216.83,789.6,208.56,776.83,208.56Z" transform="translate(-22.09 -18.9)"/><path class="cls-1" d="M816.71,188.76a6.8,6.8,0,1,0,6.5,6.79A6.5,6.5,0,0,0,816.71,188.76Z" transform="translate(-22.09 -18.9)"/><polygon class="cls-1" points="790.89 189.96 789.39 189.96 789.39 191.46 789.39 243.1 789.39 244.6 790.89 244.6 798.44 244.6 799.94 244.6 799.94 243.1 799.94 191.46 799.94 189.96 798.44 189.96 790.89 189.96"/><polygon class="cls-1" points="817.55 168.88 816.05 168.88 816.05 170.38 816.05 243.1 816.05 244.6 817.55 244.6 825.19 244.6 826.69 244.6 826.69 243.1 826.69 170.38 826.69 168.88 825.19 168.88 817.55 168.88"/><path class="cls-1" d="M887,208.66v.75h0v-.75h-.22c-15.94,0-27.07,11.33-27.07,27.57s11.17,27.57,27.18,27.57c8.86,0,16.64-3.25,21.89-9.13l.91-1-.93-1-4.21-4.51L903.45,247l-1.1,1.15a20,20,0,0,1-14.89,6c-8.77,0-15.13-5.11-16.93-13.46h41.79l.07-1.44c.45-10.09-2-18.24-7.12-23.59C900.83,211,894.68,208.66,887,208.66ZM870.5,231.39c1.65-8.06,7.88-13.17,16.28-13.17,8.72,0,14.58,5,15.61,13.17Z" transform="translate(-22.09 -18.9)"/><path class="cls-1" d="M939.33,230.67c-6.68-2-10.77-3.44-10.77-7.18,0-4.67,5.44-5.37,8.69-5.37a25.73,25.73,0,0,1,13.21,4l1.42.9.73-1.52,2.94-6.07.57-1.17-1.07-.73a31.44,31.44,0,0,0-17.31-5c-12,0-19.44,5.94-19.44,15.51-.06,11.15,9.64,14.1,17.44,16.47,6.94,2.11,11.18,3.63,11.08,7.9-.1,5.31-6.73,5.89-9.57,5.89a24.79,24.79,0,0,1-16.13-6.17l-1.46-1.36-.9,1.78-2.94,5.78-.5,1,.8.77c5,4.81,12.79,7.68,20.83,7.68,12.41,0,20.42-6.36,20.42-16.21C957.37,236.11,947.37,233.1,939.33,230.67Z" transform="translate(-22.09 -18.9)"/></svg>