<svg width="26" height="25" viewBox="0 0 26 25" fill="none" xmlns="http://www.w3.org/2000/svg">
<path d="M12.1731 21.184C12.6816 20.8771 13.3182 20.8771 13.8267 21.184L19.0565 24.3406C20.2683 25.072 21.7631 23.9855 21.4415 22.6072L20.0535 16.6586C19.9185 16.0802 20.1151 15.4746 20.564 15.0857L25.1867 11.0811C26.2565 10.1544 25.6847 8.39712 24.2743 8.27751L18.1914 7.76161C17.6001 7.71146 17.0851 7.33813 16.8535 6.79173L14.473 1.17553C13.9217 -0.125282 12.0781 -0.125278 11.5268 1.17553L9.14633 6.79173C8.91473 7.33813 8.39974 7.71146 7.8084 7.76161L1.72548 8.27751C0.315167 8.39712 -0.256717 10.1544 0.813074 11.0811L5.43583 15.0857C5.88477 15.4746 6.08132 16.0802 5.94636 16.6586L4.55836 22.6072C4.23675 23.9855 5.73155 25.072 6.94329 24.3406L12.1731 21.184Z" fill="#FFC700"/>
</svg>
