<svg width="27" height="31" viewBox="0 0 27 31" fill="none" xmlns="http://www.w3.org/2000/svg">
<path d="M13.7805 0.840403C15.4288 0.815918 17.0651 0.82865 18.7003 0.815918C18.7547 2.80509 19.5844 4.59544 20.9045 5.92155L20.9025 5.91959C22.3232 7.16442 24.1719 7.97145 26.21 8.10856L26.2381 8.11052V13.0428C24.3129 12.9958 22.5025 12.5639 20.8703 11.8215L20.9528 11.8548C20.1634 11.4855 19.4958 11.1065 18.8614 10.6834L18.9138 10.7167C18.9017 14.2906 18.9259 17.8644 18.8886 21.4255C18.7849 23.2404 18.1647 24.8956 17.1698 26.2775L17.19 26.2471C15.5265 28.5644 12.832 30.0854 9.76794 30.1755H9.75384C9.62999 30.1814 9.48398 30.1843 9.33697 30.1843C7.595 30.1843 5.96681 29.7123 4.57927 28.8925L4.61955 28.915C2.09419 27.4371 0.352213 24.9083 0.029998 21.9671L0.0259703 21.927C0.000797283 21.3149 -0.0112859 20.7027 0.0138872 20.1033C0.507279 15.4228 4.53899 11.8019 9.43968 11.8019C9.99047 11.8019 10.5302 11.8479 11.0548 11.9351L10.9984 11.9273C11.0236 13.7382 10.948 15.5501 10.948 17.361C10.5221 17.2111 10.0307 17.124 9.51822 17.124C7.63729 17.124 6.03729 18.2934 5.44522 19.9261L5.43616 19.9554C5.30224 20.3736 5.22471 20.8545 5.22471 21.3521C5.22471 21.5538 5.2378 21.7536 5.26196 21.9495L5.25995 21.926C5.59425 23.9299 7.36039 25.4421 9.49003 25.4421C9.55145 25.4421 9.61186 25.4411 9.67228 25.4381H9.66322C11.1363 25.3951 12.4151 24.6243 13.1381 23.4852L13.1482 23.4676C13.417 23.1032 13.6013 22.6625 13.6627 22.1836L13.6637 22.1699C13.7896 19.9789 13.7392 17.8007 13.7513 15.6098C13.7634 10.6775 13.7392 5.75701 13.7765 0.837465L13.7805 0.840403Z" fill="white"/>
</svg>
