<svg width="41" height="27" viewBox="0 0 41 27" fill="none" xmlns="http://www.w3.org/2000/svg">
<path fill-rule="evenodd" clip-rule="evenodd" d="M16.2051 8.29024V18.8309C20.2464 17.0702 23.3764 15.3692 27.0783 13.5354C24.0251 11.9675 20.2464 10.2084 16.2051 8.29024ZM38.7275 24.0733C38.0303 24.9238 36.8422 25.5857 35.5773 25.8049C31.8592 26.4586 8.664 26.4605 4.94799 25.8049C3.93362 25.6288 3.03035 25.2032 2.25442 24.542C-1.01502 21.7322 0.00946568 6.6644 0.797527 4.22363C1.12891 3.16716 1.55731 2.40523 2.09683 1.9051C2.79194 1.24388 3.74366 0.788584 4.83684 0.584412C7.89815 -0.00190163 23.6694 -0.329712 35.5126 0.496367C36.6037 0.67244 37.5696 1.14239 38.3314 1.83172C41.3543 4.63025 41.1482 20.5443 38.7275 24.0733Z" fill="white"/>
</svg>
